<?xml version="1.0" encoding="UTF-8" standalone="no"?>
<!DOCTYPE svg PUBLIC "-//W3C//DTD SVG 1.1//EN"
 "http://www.w3.org/Graphics/SVG/1.1/DTD/svg11.dtd">
<!-- Generated by graphviz version 2.40.1 (20161225.0304)
 -->
<!-- Title: %3 Pages: 1 -->
<svg width="312pt" height="299pt"
 viewBox="0.00 0.00 311.50 299.00" xmlns="http://www.w3.org/2000/svg" xmlns:xlink="http://www.w3.org/1999/xlink">
<g id="graph0" class="graph" transform="scale(1 1) rotate(0) translate(4 295)">
<title>%3</title>
<polygon fill="#ffffff" stroke="transparent" points="-4,4 -4,-295 307.5,-295 307.5,4 -4,4"/>
<!-- 139941127023024 -->
<g id="node1" class="node">
<title>139941127023024</title>
<polygon fill="#caff70" stroke="#000000" points="224,-21 106,-21 106,0 224,0 224,-21"/>
<text text-anchor="middle" x="165" y="-7.4" font-family="Times,serif" font-size="12.00" fill="#000000">ThAddmmBackward</text>
</g>
<!-- 139941122579984 -->
<g id="node2" class="node">
<title>139941122579984</title>
<polygon fill="#d3d3d3" stroke="#000000" points="102,-78 0,-78 0,-57 102,-57 102,-78"/>
<text text-anchor="middle" x="51" y="-64.4" font-family="Times,serif" font-size="12.00" fill="#000000">ExpandBackward</text>
</g>
<!-- 139941122579984&#45;&gt;139941127023024 -->
<g id="edge1" class="edge">
<title>139941122579984&#45;&gt;139941127023024</title>
<path fill="none" stroke="#000000" d="M72.1754,-56.9123C89.7721,-48.114 115.0292,-35.4854 134.756,-25.622"/>
<polygon fill="#000000" stroke="#000000" points="136.559,-28.6337 143.938,-21.031 133.4285,-22.3727 136.559,-28.6337"/>
</g>
<!-- 139941122640640 -->
<g id="node3" class="node">
<title>139941122640640</title>
<polygon fill="#add8e6" stroke="#000000" points="78,-149 24,-149 24,-114 78,-114 78,-149"/>
<text text-anchor="middle" x="51" y="-121.4" font-family="Times,serif" font-size="12.00" fill="#000000"> (1)</text>
</g>
<!-- 139941122640640&#45;&gt;139941122579984 -->
<g id="edge2" class="edge">
<title>139941122640640&#45;&gt;139941122579984</title>
<path fill="none" stroke="#000000" d="M51,-113.6724C51,-105.8405 51,-96.5893 51,-88.4323"/>
<polygon fill="#000000" stroke="#000000" points="54.5001,-88.2234 51,-78.2234 47.5001,-88.2235 54.5001,-88.2234"/>
</g>
<!-- 139941122580208 -->
<g id="node4" class="node">
<title>139941122580208</title>
<polygon fill="#d3d3d3" stroke="#000000" points="210,-78 120,-78 120,-57 210,-57 210,-78"/>
<text text-anchor="middle" x="165" y="-64.4" font-family="Times,serif" font-size="12.00" fill="#000000">TanhBackward</text>
</g>
<!-- 139941122580208&#45;&gt;139941127023024 -->
<g id="edge3" class="edge">
<title>139941122580208&#45;&gt;139941127023024</title>
<path fill="none" stroke="#000000" d="M165,-56.7787C165,-49.6134 165,-39.9517 165,-31.3097"/>
<polygon fill="#000000" stroke="#000000" points="168.5001,-31.1732 165,-21.1732 161.5001,-31.1732 168.5001,-31.1732"/>
</g>
<!-- 139941122147216 -->
<g id="node5" class="node">
<title>139941122147216</title>
<polygon fill="#d3d3d3" stroke="#000000" points="223,-142 105,-142 105,-121 223,-121 223,-142"/>
<text text-anchor="middle" x="164" y="-128.4" font-family="Times,serif" font-size="12.00" fill="#000000">ThAddmmBackward</text>
</g>
<!-- 139941122147216&#45;&gt;139941122580208 -->
<g id="edge4" class="edge">
<title>139941122147216&#45;&gt;139941122580208</title>
<path fill="none" stroke="#000000" d="M164.1651,-120.9317C164.3033,-112.0913 164.5045,-99.2122 164.6748,-88.3135"/>
<polygon fill="#000000" stroke="#000000" points="168.1745,-88.3514 164.8313,-78.2979 161.1754,-88.242 168.1745,-88.3514"/>
</g>
<!-- 139941122146992 -->
<g id="node6" class="node">
<title>139941122146992</title>
<polygon fill="#d3d3d3" stroke="#000000" points="119,-213 17,-213 17,-192 119,-192 119,-213"/>
<text text-anchor="middle" x="68" y="-199.4" font-family="Times,serif" font-size="12.00" fill="#000000">ExpandBackward</text>
</g>
<!-- 139941122146992&#45;&gt;139941122147216 -->
<g id="edge5" class="edge">
<title>139941122146992&#45;&gt;139941122147216</title>
<path fill="none" stroke="#000000" d="M82.5803,-191.7166C98.1768,-180.1818 123.1184,-161.7354 141.2905,-148.2955"/>
<polygon fill="#000000" stroke="#000000" points="143.6382,-150.9125 149.597,-142.1522 139.4758,-145.2845 143.6382,-150.9125"/>
</g>
<!-- 139941122253600 -->
<g id="node7" class="node">
<title>139941122253600</title>
<polygon fill="#add8e6" stroke="#000000" points="95,-291 41,-291 41,-256 95,-256 95,-291"/>
<text text-anchor="middle" x="68" y="-263.4" font-family="Times,serif" font-size="12.00" fill="#000000"> (16)</text>
</g>
<!-- 139941122253600&#45;&gt;139941122146992 -->
<g id="edge6" class="edge">
<title>139941122253600&#45;&gt;139941122146992</title>
<path fill="none" stroke="#000000" d="M68,-255.9494C68,-246.058 68,-233.6435 68,-223.2693"/>
<polygon fill="#000000" stroke="#000000" points="71.5001,-223.0288 68,-213.0288 64.5001,-223.0289 71.5001,-223.0288"/>
</g>
<!-- 139941122214824 -->
<g id="node8" class="node">
<title>139941122214824</title>
<polygon fill="#add8e6" stroke="#000000" points="191,-220 137,-220 137,-185 191,-185 191,-220"/>
<text text-anchor="middle" x="164" y="-192.4" font-family="Times,serif" font-size="12.00" fill="#000000"> (1, 8)</text>
</g>
<!-- 139941122214824&#45;&gt;139941122147216 -->
<g id="edge7" class="edge">
<title>139941122214824&#45;&gt;139941122147216</title>
<path fill="none" stroke="#000000" d="M164,-184.9494C164,-175.058 164,-162.6435 164,-152.2693"/>
<polygon fill="#000000" stroke="#000000" points="167.5001,-152.0288 164,-142.0288 160.5001,-152.0289 167.5001,-152.0288"/>
</g>
<!-- 139941122253488 -->
<g id="node9" class="node">
<title>139941122253488</title>
<polygon fill="#d3d3d3" stroke="#000000" points="282.5,-213 209.5,-213 209.5,-192 282.5,-192 282.5,-213"/>
<text text-anchor="middle" x="246" y="-199.4" font-family="Times,serif" font-size="12.00" fill="#000000">TBackward</text>
</g>
<!-- 139941122253488&#45;&gt;139941122147216 -->
<g id="edge8" class="edge">
<title>139941122253488&#45;&gt;139941122147216</title>
<path fill="none" stroke="#000000" d="M233.546,-191.7166C220.4662,-180.3915 199.6918,-162.4039 184.25,-149.0335"/>
<polygon fill="#000000" stroke="#000000" points="186.1536,-146.0521 176.3026,-142.1522 181.5715,-151.344 186.1536,-146.0521"/>
</g>
<!-- 139941122253768 -->
<g id="node10" class="node">
<title>139941122253768</title>
<polygon fill="#add8e6" stroke="#000000" points="273,-291 219,-291 219,-256 273,-256 273,-291"/>
<text text-anchor="middle" x="246" y="-263.4" font-family="Times,serif" font-size="12.00" fill="#000000"> (16, 8)</text>
</g>
<!-- 139941122253768&#45;&gt;139941122253488 -->
<g id="edge9" class="edge">
<title>139941122253768&#45;&gt;139941122253488</title>
<path fill="none" stroke="#000000" d="M246,-255.9494C246,-246.058 246,-233.6435 246,-223.2693"/>
<polygon fill="#000000" stroke="#000000" points="249.5001,-223.0288 246,-213.0288 242.5001,-223.0289 249.5001,-223.0288"/>
</g>
<!-- 139941122639464 -->
<g id="node11" class="node">
<title>139941122639464</title>
<polygon fill="#d3d3d3" stroke="#000000" points="303.5,-78 230.5,-78 230.5,-57 303.5,-57 303.5,-78"/>
<text text-anchor="middle" x="267" y="-64.4" font-family="Times,serif" font-size="12.00" fill="#000000">TBackward</text>
</g>
<!-- 139941122639464&#45;&gt;139941127023024 -->
<g id="edge10" class="edge">
<title>139941122639464&#45;&gt;139941127023024</title>
<path fill="none" stroke="#000000" d="M247.8146,-56.7787C232.428,-48.1803 210.6087,-35.9872 193.229,-26.275"/>
<polygon fill="#000000" stroke="#000000" points="194.5362,-22.9961 184.0994,-21.1732 191.1214,-29.1068 194.5362,-22.9961"/>
</g>
<!-- 139941122578640 -->
<g id="node12" class="node">
<title>139941122578640</title>
<polygon fill="#add8e6" stroke="#000000" points="295,-149 241,-149 241,-114 295,-114 295,-149"/>
<text text-anchor="middle" x="268" y="-121.4" font-family="Times,serif" font-size="12.00" fill="#000000"> (1, 16)</text>
</g>
<!-- 139941122578640&#45;&gt;139941122639464 -->
<g id="edge11" class="edge">
<title>139941122578640&#45;&gt;139941122639464</title>
<path fill="none" stroke="#000000" d="M267.7214,-113.6724C267.5991,-105.8405 267.4545,-96.5893 267.3271,-88.4323"/>
<polygon fill="#000000" stroke="#000000" points="270.8235,-88.1675 267.1676,-78.2234 263.8243,-88.2769 270.8235,-88.1675"/>
</g>
</g>
</svg>
